# xmcd
#
# Track frame offsets:
#	150
#	21862
#	46764
#	65399
#	87873
#	108758
#	127340
#	144734
#	163436
#	184315
#
# Disc length: 2745 seconds
#
# Revision: 0
# Processed by: cddbd v1.5.1PL0 Copyright (c) Steve Scherf et al.
# Submitted via: EasyCDDAExtractor 8.0.1.1
#
DISCID=8e0ab70a
DTITLE=Denise LaSalle - Wanted
DYEAR=2005
DGENRE=R&B
TTITLE0=Snap, Crackle and Pop
TTITLE1=The Thrill Is On Again
TTITLE2=Wanted Man
TTITLE3=They Made A blues Fan Out Of Me
TTITLE4=Doormat Woman
TTITLE5=It Was A House Until You Made It A Home
TTITLE6=A Woman Needs Money
TTITLE7=The Love You Threw Away
TTITLE8=Who Needs An Enemy With A Friend Like You
TTITLE9=Bone It Like You Own It
EXTD=
EXTT0=
EXTT1=
EXTT2=
EXTT3=
EXTT4=
EXTT5=
EXTT6=
EXTT7=
EXTT8=
EXTT9=
PLAYORDER=
